<svg xmlns="http://www.w3.org/2000/svg" width="36" height="36" viewBox="0 0 36 36"><defs><style>.a{fill:#0076b8;}.b{fill:none;}</style></defs><g transform="translate(-251 -431)"><g transform="translate(251 431)"><path class="a" d="M31,3H4A3.009,3.009,0,0,0,1,6v4.5H4V6H31V27H20.5v3H31a3.009,3.009,0,0,0,3-3V6A3.009,3.009,0,0,0,31,3ZM1,25.5V30H5.5A4.494,4.494,0,0,0,1,25.5Zm0-6v3A7.5,7.5,0,0,1,8.5,30h3A10.492,10.492,0,0,0,1,19.5Zm0-6v3A13.5,13.5,0,0,1,14.5,30h3A16.5,16.5,0,0,0,1,13.5Zm15,1.635v3L21.25,21l5.25-2.865v-3L21.25,18ZM21.25,7.5,13,12l8.25,4.5L29.5,12Z" transform="translate(0.2 1.8)"/><path class="b" d="M0,0H36V36H0Z"/></g></g></svg>