<svg xmlns="http://www.w3.org/2000/svg" width="36" height="36" viewBox="0 0 36 36">
  <g id="Group_627" data-name="Group 627" transform="translate(-530 -455)">
    <rect id="Rectangle_546" data-name="Rectangle 546" width="36" height="36" transform="translate(530 455)" fill="none"/>
    <path id="Path_352" data-name="Path 352" d="M29.667,6.333H26.333V3H9.667V6.333H6.333A3.343,3.343,0,0,0,3,9.667v1.667a8.319,8.319,0,0,0,7.317,8.233A8.349,8.349,0,0,0,16.333,24.5v5.167H9.667V33H26.333V29.667H19.667V24.5a8.349,8.349,0,0,0,6.017-4.933A8.319,8.319,0,0,0,33,11.333V9.667A3.343,3.343,0,0,0,29.667,6.333Zm-23.333,5V9.667H9.667v6.367A5.017,5.017,0,0,1,6.333,11.333Zm23.333,0a5.017,5.017,0,0,1-3.333,4.7V9.667h3.333Z" transform="translate(530 455)" fill="#ffd416"/>
  </g>
</svg>
