<svg id="Group_626" data-name="Group 626" xmlns="http://www.w3.org/2000/svg" width="36" height="36" viewBox="0 0 36 36">
  <g id="Group_586" data-name="Group 586">
    <g id="Group_585" data-name="Group 585">
      <rect id="Rectangle_545" data-name="Rectangle 545" width="36" height="36" fill="none"/>
      <path id="Path_349" data-name="Path 349" d="M26,13.72V7a3.009,3.009,0,0,0-3-3H5A3.009,3.009,0,0,0,2,7V25a3.009,3.009,0,0,0,3,3H23a3.009,3.009,0,0,0,3-3V18.28l6,5.97V7.75ZM14,10a3,3,0,1,1-3,3A3.009,3.009,0,0,1,14,10Zm6,12H8v-.855A3.016,3.016,0,0,1,9.83,18.37a10.429,10.429,0,0,1,8.34,0A3.016,3.016,0,0,1,20,21.145Z" transform="translate(1.6 2)" fill="#0076b8"/>
    </g>
  </g>
</svg>
