<svg xmlns="http://www.w3.org/2000/svg" width="67.583" height="67.379" viewBox="0 0 67.583 67.379">
  <g id="Group_568" data-name="Group 568" transform="translate(-30 -30)">
    <path id="Path_52" data-name="Path 52" d="M1017.563,828.817v5.506a.848.848,0,0,0,1.7,0v-5.506a.848.848,0,0,0-1.7,0Z" transform="translate(-968.704 -781.177)" fill="#ffd416"/>
    <path id="Path_53" data-name="Path 53" d="M1006.357,841.719h5.506a.847.847,0,1,0,0-1.695h-5.506a.847.847,0,1,0,0,1.695Z" transform="translate(-959.404 -790.478)" fill="#ffd416"/>
    <path id="Path_54" data-name="Path 54" d="M999.613,815.373c0,.2-.008.4-.023.593q-.01.132-.025.263c-.007.059-.038.2,0-.023-.011.057-.017.115-.026.172a7.48,7.48,0,0,1-.271,1.113c-.056.171-.126.335-.185.5-.041.117.087-.194.009-.021l-.046.1q-.07.153-.147.3a7.583,7.583,0,0,1-.564.93c-.038.053-.091.169-.148.2l.065-.083-.069.087-.07.086q-.178.214-.37.413t-.4.385c-.062.056-.125.11-.189.164l-.107.088-.065.052.062-.048a.958.958,0,0,1-.225.164q-.114.08-.23.156-.234.152-.479.287t-.475.24l-.128.058c-.089.04-.017.047.047-.019a1.081,1.081,0,0,1-.316.122,7.505,7.505,0,0,1-1.072.3q-.127.026-.256.047a.626.626,0,0,1-.172.026c.014,0,.21-.024.052-.008-.2.02-.39.038-.587.046a8.13,8.13,0,0,1-1.183-.046c-.2-.021.15.024.023,0l-.144-.022q-.142-.023-.284-.052-.281-.057-.557-.136-.259-.074-.513-.167c-.079-.029-.158-.061-.237-.091-.177-.068.132.063.021.009-.059-.029-.12-.053-.179-.081a7.526,7.526,0,0,1-.952-.53q-.1-.068-.207-.141c-.054-.038-.191-.1-.224-.164.063.113.1.081.018.013l-.107-.088q-.107-.089-.21-.181a7.6,7.6,0,0,1-.77-.8l-.088-.108c-.068-.082-.1-.044.013.018-.06-.033-.126-.171-.164-.224q-.16-.228-.3-.467t-.256-.465q-.057-.113-.111-.227c-.024-.051-.046-.1-.069-.154-.07-.154.064.166,0-.005a8.457,8.457,0,0,1-.337-1.055q-.064-.267-.108-.537c-.008-.048-.014-.1-.022-.143-.02-.127.025.219,0,.023-.01-.1-.021-.194-.028-.292a7.633,7.633,0,0,1,0-1.186c.008-.1.018-.195.028-.292.016-.158-.011.038-.008.052a.613.613,0,0,1,.026-.172q.046-.285.115-.565.064-.263.148-.521.039-.121.082-.241a1.052,1.052,0,0,1,.122-.316c-.008.007-.083.189-.019.047.019-.043.038-.086.058-.128q.053-.114.109-.227.138-.275.3-.537.131-.214.275-.419a.956.956,0,0,1,.164-.224c-.087.052-.088.111-.03.04l.123-.151a7.57,7.57,0,0,1,.752-.777q.1-.092.21-.181l.086-.071.043-.035q.107-.084-.04.03c.032-.057.149-.11.2-.148q.125-.089.253-.172a7.559,7.559,0,0,1,.979-.538l.1-.046c.173-.079-.138.05-.021.009.08-.028.158-.063.237-.092q.293-.108.595-.192.249-.069.5-.12.142-.029.284-.052l.115-.018c.176-.029-.191.022.035,0a7.667,7.667,0,0,1,1.154-.042c.2.008.391.026.587.046.084.008.08-.03-.052-.008a.529.529,0,0,1,.144.021c.1.017.209.036.313.057a7.416,7.416,0,0,1,1.1.312c.066.024.221.053.263.1-.007-.008-.189-.083-.047-.02l.1.046q.28.128.55.279.219.123.43.26.117.076.23.156l.091.065c.019.014.206.153.092.067s.1.078.131.107q.107.089.21.181.207.185.4.385t.37.413c.03.036.183.233.107.131s.025.034.034.047c.033.045.066.09.1.135a7.543,7.543,0,0,1,.573.957q.063.125.121.253l.046.1c.064.142-.011-.04-.019-.047.05.042.078.2.1.263q.059.16.11.322a7.521,7.521,0,0,1,.258,1.088.551.551,0,0,1,.021.144c.022-.132-.016-.136-.008-.052s.021.194.028.292c.015.2.022.4.023.593a.847.847,0,0,0,1.695,0,8.382,8.382,0,0,0-1.521-4.816,8.6,8.6,0,0,0-4.042-3.09,8.439,8.439,0,0,0-9.279,2.521,8.55,8.55,0,0,0-1.934,4.791A8.381,8.381,0,0,0,989.4,823a8.593,8.593,0,0,0,5.221.594,8.435,8.435,0,0,0,6.566-6.824,9.278,9.278,0,0,0,.121-1.4.847.847,0,1,0-1.695,0Z" transform="translate(-943.201 -764.98)" fill="#fff"/>
    <path id="Path_55" data-name="Path 55" d="M982.856,804.257a13.745,13.745,0,0,1-1.167,1.155q-.146.127-.3.25l-.15.122-.057.047c-.215.177-.451.334-.682.489a13.26,13.26,0,0,1-1.427.833,4.072,4.072,0,0,1-.739.344c.006,0,.142-.058.052-.022l-.091.037-.213.084q-.2.077-.4.147a13.193,13.193,0,0,1-1.628.451c-.274.057-.55.1-.827.146-.169.025.126-.014-.043.005l-.2.023q-.237.026-.475.043a13.479,13.479,0,0,1-1.648.017q-.367-.018-.733-.057l-.174-.02c-.106-.013-.143-.023-.006,0-.133-.023-.268-.039-.4-.061a13.219,13.219,0,0,1-2.792-.794l-.078-.032c-.088-.035.075.031.073.031a.6.6,0,0,1-.155-.067q-.167-.074-.331-.152-.316-.151-.623-.318a13.344,13.344,0,0,1-1.21-.744q-.149-.1-.294-.21l-.134-.1-.066-.05c-.091-.067.128.1.04.031-.181-.145-.361-.289-.536-.441a13.349,13.349,0,0,1-1.017-.982q-.246-.264-.477-.54-.107-.128-.21-.258c-.02-.025-.127-.172-.053-.067s-.047-.062-.068-.091a13.307,13.307,0,0,1-1.443-2.446q-.035-.077-.069-.154l-.034-.078c-.039-.087.032.075.03.073a1.709,1.709,0,0,1-.147-.366q-.127-.33-.235-.667a13.15,13.15,0,0,1-.37-1.408q-.075-.368-.13-.74c0-.029-.008-.057-.012-.086-.014-.1.011.083.011.081,0-.057-.015-.116-.021-.174-.015-.126-.027-.252-.038-.379a13.527,13.527,0,0,1-.045-1.512q.01-.369.04-.738.015-.19.036-.379c.006-.058.013-.116.02-.174.017-.148-.024.166,0-.034a13.207,13.207,0,0,1,.729-2.818c.04-.105.082-.21.125-.315a.409.409,0,0,1,.032-.078s-.07.16-.03.073c.027-.06.052-.12.079-.18q.149-.332.316-.657a13.209,13.209,0,0,1,.719-1.227q.191-.29.4-.57l.1-.133c.094-.127-.1.119,0,0,.08-.1.161-.2.244-.3a13.375,13.375,0,0,1,.96-1.037,14.048,14.048,0,0,1,1.065-.93c.124-.1-.122.091,0,0l.133-.1q.146-.107.294-.21.3-.207.6-.4a13.334,13.334,0,0,1,1.25-.684q.152-.073.305-.142l.154-.068c.022-.01.111-.052,0,0s0,0,.029-.012c.218-.088.438-.173.66-.25a13.2,13.2,0,0,1,1.4-.4q.365-.084.734-.147c.114-.019.229-.037.344-.054l.086-.012s-.178.022-.081.011l.2-.024a13.392,13.392,0,0,1,1.51-.081q.455,0,.909.033.207.015.414.036l.206.022.1.013c.1.012.046,0-.021,0a4.168,4.168,0,0,1,.873.153q.413.087.82.2t.831.261q.189.066.375.138l.186.073.092.038c.092.037.044.009-.019-.008a4.463,4.463,0,0,1,.779.365q.367.187.722.4t.721.457q.163.111.322.226l.159.116c.056.042.2.132.063.046a4.739,4.739,0,0,1,.629.523c.2.18.4.368.6.56a.848.848,0,0,0,1.2-1.2,14.108,14.108,0,0,0-18.762-1.083,13.97,13.97,0,0,0-3.789,4.588,14.138,14.138,0,0,0-.292,12.371,13.931,13.931,0,0,0,3.587,4.79,14.119,14.119,0,0,0,18.58-.049,13.626,13.626,0,0,0,1.192-1.176.848.848,0,0,0-1.2-1.2Z" transform="translate(-923.837 -745.615)" fill="#fff"/>
    <path id="Path_56" data-name="Path 56" d="M962.062,793.659l-.236.1c-.047.021-.254.107-.1.045-.171.07-.342.14-.515.205q-.486.185-.981.343a18.749,18.749,0,0,1-2.069.532q-.26.051-.522.1l-.263.042-.113.017s-.225.032-.114.017-.052.006-.077.01l-.114.014-.267.03q-.287.03-.575.051a19.187,19.187,0,0,1-2.026.041q-.839-.027-1.673-.129l-.119-.014c.13.016-.077-.011-.118-.017q-.215-.032-.43-.068-.4-.068-.794-.153a18.721,18.721,0,0,1-3.123-.963c-.03-.012-.234-.093-.107-.044s-.081-.035-.106-.046q-.181-.079-.359-.161-.369-.17-.731-.356-.708-.364-1.384-.787t-1.308-.9a.821.821,0,0,1-.155-.117c.01.013.157.122.04.03l-.066-.051q-.163-.129-.324-.261-.3-.247-.589-.506a19.01,19.01,0,0,1-2.189-2.317l-.12-.153c-.093-.118.107.142-.02-.027q-.126-.166-.249-.335-.229-.315-.444-.64-.439-.662-.823-1.36t-.708-1.432l-.079-.181c-.085-.2.044.11-.013-.031s-.106-.261-.157-.393q-.148-.383-.28-.771a18.767,18.767,0,0,1-.773-3.171c-.01-.067-.02-.134-.03-.2-.028-.2.014.121,0-.034s-.035-.29-.05-.435q-.043-.41-.068-.821-.051-.847-.027-1.7t.124-1.7c.008-.068.017-.135.025-.2.012-.1-.011.083-.011.081a.689.689,0,0,1,.016-.115q.029-.2.062-.4.069-.413.155-.823a18.714,18.714,0,0,1,.944-3.1c.024-.061.05-.122.074-.183.057-.14-.065.147.013-.031.056-.129.113-.258.171-.386q.163-.357.341-.707.367-.722.8-1.411.419-.674.894-1.31l.117-.155c.09-.12-.11.139.02-.026q.129-.164.26-.325.246-.3.5-.591A18.994,18.994,0,0,1,943.5,763.1l.152-.121.088-.068c.073-.058-.063.049-.062.047a1.771,1.771,0,0,1,.334-.25q.326-.238.661-.462.661-.442,1.358-.826t1.43-.712l.18-.079.077-.033c.138-.06-.033.01-.047.019a1.846,1.846,0,0,1,.392-.159q.369-.144.743-.273a18.761,18.761,0,0,1,3.195-.791l.172-.026c.027,0,.256-.034.118-.017l.119-.015.232-.027q.423-.046.849-.073.934-.06,1.871-.028.565.019,1.129.072.259.024.518.056l.085.01.045.006.315.047a.87.87,0,0,0,1.043-.592.857.857,0,0,0-.592-1.042,20.174,20.174,0,0,0-7.964.318,19.5,19.5,0,0,0-6.169,2.732,20.179,20.179,0,0,0-4.909,4.685,19.589,19.589,0,0,0-3.82,12.956,19.98,19.98,0,0,0,1.68,6.806,19.73,19.73,0,0,0,9.046,9.513,19.96,19.96,0,0,0,6.7,2.01,19.582,19.582,0,0,0,8.346-.833,21.223,21.223,0,0,0,2.1-.823.85.85,0,0,0,.3-1.16.872.872,0,0,0-1.16-.3Z" transform="translate(-905.006 -726.81)" fill="#fff"/>
    <path id="Path_57" data-name="Path 57" d="M1088.093,757.683h10.836v3.288h-6.813v4.051h6.365v3.261h-6.365v7.128h-4.024Z" transform="translate(-1023.123 -726.946)" fill="#fff"/>
    <path id="Path_58" data-name="Path 58" d="M1149.663,756.484a2.007,2.007,0,0,1-2.157,2,2.014,2.014,0,1,1,.026-4.024A2,2,0,0,1,1149.663,756.484Zm-4.129,16.439V760.061h4v12.862Z" transform="translate(-1067.36 -724.459)" fill="#fff"/>
    <path id="Path_59" data-name="Path 59" d="M1177.081,782.11c0-1.6-.053-2.972-.1-4.1h3.471l.184,1.762h.079a4.708,4.708,0,0,1,3.971-2.052c2.63,0,4.6,1.736,4.6,5.523v7.628h-4v-7.128c0-1.657-.578-2.788-2.025-2.788a2.134,2.134,0,0,0-2.025,1.5,2.74,2.74,0,0,0-.158,1v7.417h-4Z" transform="translate(-1091.702 -742.405)" fill="#fff"/>
    <path id="Path_60" data-name="Path 60" d="M1088.093,852.492h4.024v14.361h7.05v3.367h-11.073Z" transform="translate(-1023.123 -800.098)" fill="#fff"/>
    <path id="Path_61" data-name="Path 61" d="M1150.121,851.293a2.007,2.007,0,0,1-2.156,2,2.014,2.014,0,1,1,.026-4.024A2.005,2.005,0,0,1,1150.121,851.293Zm-4.129,16.439V854.87h4v12.862Z" transform="translate(-1067.714 -797.61)" fill="#fff"/>
    <path id="Path_62" data-name="Path 62" d="M1178.456,857.674v3.682h2.867V864.3h-2.867v4.655c0,1.552.368,2.262,1.578,2.262a6.5,6.5,0,0,0,1.184-.105l.026,3.025a7.845,7.845,0,0,1-2.6.342,4.158,4.158,0,0,1-3-1.1,5.329,5.329,0,0,1-1.1-3.814V864.3h-1.71v-2.946h1.71v-2.788Z" transform="translate(-1088.501 -804.096)" fill="#fff"/>
    <path id="Path_63" data-name="Path 63" d="M1089.692,947.338h2.94v.763h-2.011v1.406h1.875v.763h-1.875v2.162h-.929Z" transform="translate(-1024.356 -873.278)" fill="#fff"/>
    <path id="Path_64" data-name="Path 64" d="M1106.453,947.314a.522.522,0,1,1-.521-.506A.493.493,0,0,1,1106.453,947.314Zm-.99,4.709v-3.681h.937v3.681Z" transform="translate(-1036.484 -872.869)" fill="#fff"/>
    <path id="Path_65" data-name="Path 65" d="M1114.01,954.34c0-.423-.007-.779-.03-1.1h.817l.045.552h.023a1.327,1.327,0,0,1,1.171-.635c.642,0,1.308.416,1.308,1.58v2.184h-.93v-2.078c0-.529-.2-.93-.7-.93a.781.781,0,0,0-.725.544.947.947,0,0,0-.038.3v2.162h-.937Z" transform="translate(-1043.096 -877.771)" fill="#fff"/>
    <path id="Path_66" data-name="Path 66" d="M1134.243,956.925l-.06-.408h-.023a1.368,1.368,0,0,1-1.089.491,1.093,1.093,0,0,1-1.156-1.1c0-.929.824-1.4,2.184-1.391v-.061c0-.242-.1-.642-.748-.642a1.949,1.949,0,0,0-.99.272l-.182-.6a2.653,2.653,0,0,1,1.331-.325,1.377,1.377,0,0,1,1.519,1.549v1.33a5.946,5.946,0,0,0,.053.884Zm-.121-1.8c-.658-.015-1.285.128-1.285.688a.488.488,0,0,0,.529.529.753.753,0,0,0,.726-.506.669.669,0,0,0,.03-.2Z" transform="translate(-1056.934 -877.771)" fill="#fff"/>
    <path id="Path_67" data-name="Path 67" d="M1149.747,954.34c0-.423-.007-.779-.03-1.1h.816l.045.552h.023a1.326,1.326,0,0,1,1.171-.635c.642,0,1.308.416,1.308,1.58v2.184h-.93v-2.078c0-.529-.2-.93-.7-.93a.78.78,0,0,0-.725.544.94.94,0,0,0-.038.3v2.162h-.937Z" transform="translate(-1070.67 -877.771)" fill="#fff"/>
    <path id="Path_68" data-name="Path 68" d="M1170.691,956.812a2.688,2.688,0,0,1-1.043.189,1.768,1.768,0,0,1-1.9-1.874,1.9,1.9,0,0,1,2.048-1.965,2.32,2.32,0,0,1,.9.174l-.166.7a1.639,1.639,0,0,0-.7-.144,1.192,1.192,0,0,0,0,2.381,1.823,1.823,0,0,0,.733-.143Z" transform="translate(-1084.584 -877.771)" fill="#fff"/>
    <path id="Path_69" data-name="Path 69" d="M1184.446,947.314a.522.522,0,1,1-.521-.506A.493.493,0,0,1,1184.446,947.314Zm-.99,4.709v-3.681h.937v3.681Z" transform="translate(-1096.661 -872.869)" fill="#fff"/>
    <path id="Path_70" data-name="Path 70" d="M1193.309,956.925l-.061-.408h-.022a1.367,1.367,0,0,1-1.089.491,1.093,1.093,0,0,1-1.156-1.1c0-.929.824-1.4,2.185-1.391v-.061c0-.242-.1-.642-.748-.642a1.948,1.948,0,0,0-.99.272l-.181-.6a2.651,2.651,0,0,1,1.33-.325,1.377,1.377,0,0,1,1.519,1.549v1.33a5.949,5.949,0,0,0,.053.884Zm-.121-1.8c-.658-.015-1.285.128-1.285.688a.488.488,0,0,0,.529.529.753.753,0,0,0,.726-.506.673.673,0,0,0,.03-.2Z" transform="translate(-1102.508 -877.771)" fill="#fff"/>
    <path id="Path_71" data-name="Path 71" d="M1208.915,946.147h.938v5.366h-.937Z" transform="translate(-1116.345 -872.359)" fill="#fff"/>
    <path id="Path_72" data-name="Path 72" d="M1089.692,987.046h.929v4.316h2.094v.779h-3.023Z" transform="translate(-1024.356 -903.915)" fill="#fff"/>
    <path id="Path_73" data-name="Path 73" d="M1106.652,987.023a.522.522,0,1,1-.521-.506A.493.493,0,0,1,1106.652,987.023Zm-.99,4.709v-3.681h.937v3.681Z" transform="translate(-1036.637 -903.507)" fill="#fff"/>
    <path id="Path_74" data-name="Path 74" d="M1114.125,988.635v1.051h.885v.7h-.885v1.625c0,.446.121.681.476.681a1.375,1.375,0,0,0,.363-.046l.015.71a2.041,2.041,0,0,1-.672.091,1.076,1.076,0,0,1-.8-.3,1.467,1.467,0,0,1-.287-1.028v-1.731h-.529v-.7h.529v-.831Z" transform="translate(-1042.1 -905.141)" fill="#fff"/>
    <path id="Path_75" data-name="Path 75" d="M1125.593,995.054a1,1,0,0,0,1.134.953,2.763,2.763,0,0,0,1.02-.167l.136.643a3.467,3.467,0,0,1-1.285.227,1.741,1.741,0,0,1-1.9-1.859,1.823,1.823,0,0,1,1.8-1.98,1.6,1.6,0,0,1,1.587,1.791,2.243,2.243,0,0,1-.03.393Zm1.617-.65a.791.791,0,0,0-.763-.9.909.909,0,0,0-.854.9Z" transform="translate(-1051.369 -908.409)" fill="#fff"/>
    <path id="Path_76" data-name="Path 76" d="M1142.7,994.14c0-.5-.008-.854-.03-1.186h.809l.03.7h.03a1.1,1.1,0,0,1,1.005-.786.979.979,0,0,1,.219.023v.877a1.286,1.286,0,0,0-.272-.03.82.82,0,0,0-.832.7,1.61,1.61,0,0,0-.03.287v1.9h-.93Z" transform="translate(-1065.233 -908.409)" fill="#fff"/>
    <path id="Path_77" data-name="Path 77" d="M1155.486,996.634l-.06-.408h-.023a1.369,1.369,0,0,1-1.089.491,1.093,1.093,0,0,1-1.157-1.1c0-.929.824-1.4,2.184-1.391v-.061c0-.242-.1-.643-.748-.643a1.95,1.95,0,0,0-.99.272l-.181-.6a2.649,2.649,0,0,1,1.33-.325,1.376,1.376,0,0,1,1.519,1.549v1.33a5.88,5.88,0,0,0,.053.884Zm-.121-1.8c-.657-.015-1.285.128-1.285.688a.488.488,0,0,0,.529.529.753.753,0,0,0,.726-.506.674.674,0,0,0,.03-.2Z" transform="translate(-1073.325 -908.409)" fill="#fff"/>
    <path id="Path_78" data-name="Path 78" d="M1173.008,996.521a2.689,2.689,0,0,1-1.043.189,1.768,1.768,0,0,1-1.9-1.874,1.9,1.9,0,0,1,2.048-1.965,2.321,2.321,0,0,1,.9.174l-.166.7a1.64,1.64,0,0,0-.7-.144,1.192,1.192,0,0,0,0,2.381,1.816,1.816,0,0,0,.733-.144Z" transform="translate(-1086.372 -908.409)" fill="#fff"/>
    <path id="Path_79" data-name="Path 79" d="M1185.582,993.234l.665,1.973c.075.227.151.506.2.718h.023c.06-.212.128-.484.2-.726l.575-1.965h1l-.922,2.509a5.519,5.519,0,0,1-1.285,2.366,1.871,1.871,0,0,1-.975.476l-.212-.786a1.6,1.6,0,0,0,.544-.257,1.625,1.625,0,0,0,.506-.582.375.375,0,0,0,.06-.166.4.4,0,0,0-.053-.182l-1.345-3.379Z" transform="translate(-1097.555 -908.69)" fill="#fff"/>
    <path id="Path_80" data-name="Path 80" d="M1090.621,1026.755v5.094h-.929v-5.094Z" transform="translate(-1024.356 -934.553)" fill="#fff"/>
    <path id="Path_81" data-name="Path 81" d="M1098.359,1033.758c0-.423-.008-.779-.03-1.1h.816l.046.552h.022a1.327,1.327,0,0,1,1.172-.635c.643,0,1.308.416,1.308,1.58v2.184h-.93v-2.078c0-.529-.2-.93-.7-.93a.78.78,0,0,0-.726.544.953.953,0,0,0-.037.3v2.161h-.937Z" transform="translate(-1031.02 -939.047)" fill="#fff"/>
    <path id="Path_82" data-name="Path 82" d="M1118.2,1026.732a.522.522,0,1,1-.521-.506A.493.493,0,0,1,1118.2,1026.732Zm-.99,4.709v-3.681h.937v3.681Z" transform="translate(-1045.547 -934.145)" fill="#fff"/>
    <path id="Path_83" data-name="Path 83" d="M1125.673,1028.344v1.05h.885v.7h-.885v1.625c0,.446.121.68.476.68a1.375,1.375,0,0,0,.363-.045l.015.71a2.031,2.031,0,0,1-.672.091,1.078,1.078,0,0,1-.8-.3,1.467,1.467,0,0,1-.287-1.028v-1.731h-.53v-.7h.53v-.831Z" transform="translate(-1051.01 -935.78)" fill="#fff"/>
    <path id="Path_84" data-name="Path 84" d="M1138.286,1026.732a.522.522,0,1,1-.521-.506A.493.493,0,0,1,1138.286,1026.732Zm-.99,4.709v-3.681h.937v3.681Z" transform="translate(-1061.045 -934.145)" fill="#fff"/>
    <path id="Path_85" data-name="Path 85" d="M1147.147,1036.343l-.06-.408h-.022a1.367,1.367,0,0,1-1.089.491,1.093,1.093,0,0,1-1.157-1.1c0-.93.824-1.4,2.184-1.391v-.061c0-.242-.1-.643-.748-.643a1.952,1.952,0,0,0-.99.272l-.181-.6a2.649,2.649,0,0,1,1.33-.325,1.377,1.377,0,0,1,1.519,1.55v1.33a5.887,5.887,0,0,0,.053.884Zm-.121-1.8c-.658-.015-1.285.128-1.285.688a.488.488,0,0,0,.529.529.754.754,0,0,0,.726-.506.668.668,0,0,0,.03-.2Z" transform="translate(-1066.891 -939.047)" fill="#fff"/>
    <path id="Path_86" data-name="Path 86" d="M1162.371,1028.344v1.05h.885v.7h-.885v1.625c0,.446.121.68.476.68a1.375,1.375,0,0,0,.363-.045l.015.71a2.033,2.033,0,0,1-.673.091,1.076,1.076,0,0,1-.8-.3,1.466,1.466,0,0,1-.287-1.028v-1.731h-.529v-.7h.529v-.831Z" transform="translate(-1079.325 -935.78)" fill="#fff"/>
    <path id="Path_87" data-name="Path 87" d="M1174.983,1026.732a.522.522,0,1,1-.521-.506A.493.493,0,0,1,1174.983,1026.732Zm-.99,4.709v-3.681h.937v3.681Z" transform="translate(-1089.359 -934.145)" fill="#fff"/>
    <path id="Path_88" data-name="Path 88" d="M1181.827,1032.942l.6,1.867c.106.325.181.62.249.922h.023c.068-.3.151-.589.249-.922l.582-1.867h.983l-1.406,3.681h-.915l-1.368-3.681Z" transform="translate(-1094.669 -939.327)" fill="#fff"/>
    <path id="Path_89" data-name="Path 89" d="M1198.887,1034.763a1,1,0,0,0,1.134.953,2.765,2.765,0,0,0,1.021-.167l.136.642a3.468,3.468,0,0,1-1.285.227,1.741,1.741,0,0,1-1.9-1.859,1.823,1.823,0,0,1,1.8-1.98,1.6,1.6,0,0,1,1.587,1.791,2.3,2.3,0,0,1-.031.393Zm1.618-.65a.791.791,0,0,0-.764-.9.91.91,0,0,0-.854.9Z" transform="translate(-1107.92 -939.047)" fill="#fff"/>
    <path id="Path_90" data-name="Path 90" d="M992.333,947.32h4.2V948.6h-2.643v1.572h2.469v1.265h-2.469V954.2h-1.561Z" transform="translate(-949.237 -873.264)" fill="#fff"/>
    <path id="Path_91" data-name="Path 91" d="M1017.435,947.32V954.2h-1.561V947.32Z" transform="translate(-967.401 -873.264)" fill="#fff"/>
    <path id="Path_92" data-name="Path 92" d="M1028.6,947.24a12.729,12.729,0,0,1,2.1-.143,3.3,3.3,0,0,1,2.1.551,2.011,2.011,0,0,1,.735,1.592,2.2,2.2,0,0,1-.633,1.633,3.19,3.19,0,0,1-2.235.724,3.941,3.941,0,0,1-.531-.031v2.459H1028.6Zm1.541,3.123a2.377,2.377,0,0,0,.52.041c.827,0,1.337-.418,1.337-1.122,0-.633-.439-1.01-1.214-1.01a2.656,2.656,0,0,0-.643.061Z" transform="translate(-977.224 -873.092)" fill="#fff"/>
  </g>
</svg>
