<svg xmlns="http://www.w3.org/2000/svg" width="52.157" height="52.001" viewBox="0 0 52.157 52.001">
  <g id="Group_1928" data-name="Group 1928" transform="translate(-139 -24)">
    <path id="Path_52" data-name="Path 52" d="M1017.563,828.623v4.249a.654.654,0,0,0,1.308,0v-4.249a.654.654,0,0,0-1.308,0Z" transform="translate(-864.008 -791.009)" fill="#ffd416"/>
    <path id="Path_53" data-name="Path 53" d="M1006.164,841.332h4.249a.654.654,0,1,0,0-1.308h-4.249a.654.654,0,1,0,0,1.308Z" transform="translate(-854.08 -800.939)" fill="#ffd416"/>
    <path id="Path_54" data-name="Path 54" d="M996.166,813.457c0,.153-.006.305-.018.458q-.008.1-.019.2c-.005.045-.029.151,0-.017-.008.044-.013.089-.02.133a5.763,5.763,0,0,1-.209.859c-.043.132-.1.259-.143.389-.031.09.067-.15.007-.016l-.035.079q-.054.118-.113.234a5.841,5.841,0,0,1-.435.718c-.029.041-.07.131-.114.156l.05-.064-.053.067-.054.066q-.137.165-.286.319t-.308.3q-.072.064-.146.126l-.083.068-.05.04.048-.037a.737.737,0,0,1-.173.127q-.088.062-.178.12-.18.117-.369.221t-.367.185l-.1.045c-.068.031-.013.036.036-.015a.835.835,0,0,1-.244.094,5.793,5.793,0,0,1-.827.23q-.1.02-.2.036a.48.48,0,0,1-.133.02c.01,0,.162-.019.04-.006-.151.015-.3.029-.453.035a6.265,6.265,0,0,1-.913-.035c-.151-.016.116.018.018,0l-.111-.017q-.11-.018-.219-.04-.217-.044-.43-.1t-.4-.128c-.061-.022-.122-.047-.183-.07-.137-.052.1.049.016.007-.045-.022-.093-.041-.138-.062a5.8,5.8,0,0,1-.734-.409q-.081-.053-.16-.109c-.042-.029-.147-.08-.173-.127.048.087.078.062.014.01l-.083-.068q-.082-.068-.162-.14a5.864,5.864,0,0,1-.594-.616l-.068-.083c-.052-.063-.077-.034.01.014-.047-.026-.1-.132-.127-.173q-.124-.176-.234-.36t-.2-.359q-.044-.087-.085-.175c-.018-.039-.036-.079-.054-.119-.054-.119.049.128,0,0a6.517,6.517,0,0,1-.26-.814q-.049-.206-.083-.414c-.006-.037-.011-.074-.017-.111-.016-.1.019.169,0,.018-.008-.075-.016-.15-.022-.225a5.875,5.875,0,0,1,0-.915c.006-.075.014-.15.022-.225.012-.122-.008.03-.006.04a.473.473,0,0,1,.02-.133q.036-.22.089-.436t.114-.4q.03-.094.063-.186a.81.81,0,0,1,.094-.244c-.006.005-.064.146-.015.036l.045-.1q.041-.088.084-.176.107-.212.23-.415.1-.165.212-.324a.74.74,0,0,1,.127-.173c-.067.04-.068.086-.023.031l.1-.116a5.838,5.838,0,0,1,.58-.6q.08-.071.162-.14l.066-.054.033-.027q.083-.065-.031.023c.025-.044.115-.085.156-.114q.1-.068.2-.133a5.836,5.836,0,0,1,.756-.415l.079-.035c.133-.061-.106.038-.016.007.062-.021.122-.048.183-.071q.226-.084.459-.148.192-.053.387-.093.109-.022.219-.04l.089-.014c.136-.022-.147.017.027,0a5.918,5.918,0,0,1,.89-.033c.152.006.3.02.453.035.065.006.062-.023-.04-.006a.412.412,0,0,1,.111.017c.081.013.161.027.241.044a5.721,5.721,0,0,1,.846.241c.051.018.17.041.2.079-.006-.006-.146-.064-.036-.015l.079.035q.216.1.424.215.169.095.332.2.09.059.178.121l.07.05c.015.011.159.118.071.052s.073.06.1.083q.082.068.162.14.159.143.308.3t.286.319c.023.028.142.179.083.1s.019.026.026.036l.075.1a5.821,5.821,0,0,1,.442.739q.049.1.094.2l.035.079c.05.11-.009-.031-.015-.036.038.033.06.152.079.2q.046.123.085.248a5.8,5.8,0,0,1,.2.84.426.426,0,0,1,.017.111c.017-.1-.013-.1-.006-.04s.016.15.022.225c.012.152.017.3.018.458a.654.654,0,0,0,1.308,0,6.468,6.468,0,0,0-1.174-3.716,6.638,6.638,0,0,0-3.119-2.385,6.513,6.513,0,0,0-7.161,1.946,6.6,6.6,0,0,0-1.493,3.7,6.468,6.468,0,0,0,3.756,6.345,6.631,6.631,0,0,0,4.029.459,6.51,6.51,0,0,0,5.068-5.266,7.167,7.167,0,0,0,.093-1.079.654.654,0,0,0-1.308,0Z" transform="translate(-836.781 -773.718)" fill="#225f2b"/>
    <path id="Path_55" data-name="Path 55" d="M977.505,799.149a10.6,10.6,0,0,1-.9.891q-.112.1-.228.193l-.116.094-.044.036c-.166.137-.348.258-.527.377a10.221,10.221,0,0,1-1.1.643,3.136,3.136,0,0,1-.57.265s.11-.045.04-.017l-.07.029-.165.065q-.154.059-.31.113a10.18,10.18,0,0,1-1.256.348c-.212.044-.425.081-.638.113-.13.019.1-.011-.033,0l-.156.018q-.183.02-.367.033a10.408,10.408,0,0,1-1.272.013q-.283-.014-.566-.044l-.135-.015c-.082-.01-.11-.017,0,0-.1-.018-.207-.03-.31-.047a10.2,10.2,0,0,1-2.155-.613l-.06-.025c-.068-.027.058.024.056.024a.463.463,0,0,1-.119-.052q-.129-.057-.256-.118-.244-.116-.481-.245a10.292,10.292,0,0,1-.934-.574q-.115-.079-.227-.162l-.1-.076-.051-.039c-.07-.052.1.078.031.024-.139-.112-.278-.223-.413-.34a10.293,10.293,0,0,1-.785-.758q-.19-.2-.368-.417-.082-.1-.162-.2c-.015-.019-.1-.132-.041-.052s-.036-.048-.053-.07a10.275,10.275,0,0,1-1.114-1.888l-.053-.119-.026-.06c-.03-.067.025.058.023.056a1.318,1.318,0,0,1-.113-.283q-.1-.255-.182-.515a10.155,10.155,0,0,1-.286-1.087q-.058-.284-.1-.571c0-.022-.006-.044-.01-.067-.011-.075.008.064.008.063,0-.044-.011-.09-.016-.134-.011-.1-.021-.195-.03-.292a10.441,10.441,0,0,1-.034-1.167q.008-.285.031-.569.012-.146.028-.293c0-.045.01-.09.016-.134.013-.114-.019.128,0-.026a10.192,10.192,0,0,1,.563-2.175c.031-.081.063-.162.1-.243a.316.316,0,0,1,.025-.06s-.054.123-.023.056c.021-.046.04-.093.061-.139q.115-.257.244-.507a10.213,10.213,0,0,1,.555-.947q.147-.224.307-.44l.077-.1c.073-.1-.073.092,0,0,.062-.078.125-.156.188-.233a10.309,10.309,0,0,1,.741-.8,10.848,10.848,0,0,1,.822-.718c.1-.076-.094.07,0,0l.1-.077q.112-.083.227-.162.229-.16.466-.307a10.276,10.276,0,0,1,.964-.528q.117-.056.236-.109l.119-.052c.017-.007.086-.04,0,0s0,0,.022-.009c.168-.068.338-.133.509-.193a10.189,10.189,0,0,1,1.077-.311q.282-.065.567-.113.132-.023.265-.042l.067-.01s-.138.017-.062.009l.157-.018a10.341,10.341,0,0,1,1.165-.062q.351,0,.7.025.16.011.319.027l.159.017.079.01c.079.01.035,0-.016,0a3.217,3.217,0,0,1,.674.118q.319.067.633.154t.641.2q.146.051.29.106l.143.056.071.029c.071.029.034.007-.015-.006a3.443,3.443,0,0,1,.6.281q.283.144.557.306t.557.353q.126.085.249.174l.122.09c.043.032.157.1.048.036a3.661,3.661,0,0,1,.485.4c.157.139.31.284.459.432a.654.654,0,0,0,.925-.925,10.888,10.888,0,0,0-14.48-.836,10.782,10.782,0,0,0-2.924,3.541,10.911,10.911,0,0,0-.225,9.547,10.752,10.752,0,0,0,2.769,3.7,10.9,10.9,0,0,0,14.34-.038,10.516,10.516,0,0,0,.92-.908.654.654,0,0,0-.925-.925Z" transform="translate(-816.109 -753.044)" fill="#225f2b"/>
    <path id="Path_56" data-name="Path 56" d="M955.887,785.407l-.182.081c-.037.016-.2.083-.079.035-.132.054-.264.108-.4.159q-.375.143-.757.265a14.477,14.477,0,0,1-1.6.411q-.2.04-.4.074l-.2.032-.087.013-.088.013c.083-.011-.04,0-.059.007l-.088.01-.206.023q-.222.023-.444.039a14.812,14.812,0,0,1-1.563.032q-.647-.021-1.291-.1l-.092-.011c.1.012-.06-.009-.091-.013q-.166-.025-.332-.053-.307-.052-.612-.118a14.442,14.442,0,0,1-2.41-.744c-.023-.009-.181-.072-.083-.034s-.063-.027-.082-.035c-.093-.041-.185-.082-.277-.124q-.285-.131-.564-.275-.547-.281-1.068-.607t-1.009-.693a.633.633,0,0,1-.12-.091c.008.01.121.094.031.023l-.051-.04q-.126-.1-.25-.2-.231-.191-.455-.391a14.669,14.669,0,0,1-1.689-1.788l-.093-.118c-.072-.091.083.109-.015-.021q-.1-.128-.192-.258-.176-.244-.343-.494-.339-.511-.635-1.05t-.547-1.105l-.061-.139c-.066-.151.034.085-.01-.024s-.082-.2-.121-.3q-.115-.3-.216-.6a14.485,14.485,0,0,1-.6-2.447c-.008-.052-.016-.1-.023-.155-.022-.154.011.093,0-.027s-.027-.224-.039-.336q-.033-.316-.052-.633-.04-.653-.021-1.309t.1-1.315c.006-.052.013-.1.019-.156.009-.075-.008.064-.008.063a.533.533,0,0,1,.013-.089q.022-.155.048-.31.053-.319.12-.635a14.446,14.446,0,0,1,.728-2.393l.057-.141c.044-.108-.05.114.01-.024.043-.1.087-.2.132-.3q.126-.276.263-.546.284-.557.614-1.089t.69-1.011l.09-.12c.07-.093-.085.107.016-.02q.1-.126.2-.251.19-.232.389-.456a14.66,14.66,0,0,1,1.766-1.681l.117-.093.068-.053c.057-.045-.048.038-.048.037a1.363,1.363,0,0,1,.258-.193q.251-.184.51-.357.51-.341,1.048-.638t1.1-.55l.139-.061.06-.026c.107-.046-.026.007-.036.015a1.425,1.425,0,0,1,.3-.122q.285-.111.574-.211a14.476,14.476,0,0,1,2.466-.61l.133-.02c.021,0,.2-.026.091-.013l.092-.011.179-.021q.327-.036.655-.056.721-.046,1.444-.021.436.015.871.056.2.018.4.043l.066.008.035,0,.243.036a.671.671,0,0,0,.8-.457.662.662,0,0,0-.457-.8,15.57,15.57,0,0,0-6.146.246,15.049,15.049,0,0,0-4.761,2.109,15.575,15.575,0,0,0-3.789,3.616,15.119,15.119,0,0,0-2.948,10,15.423,15.423,0,0,0,1.3,5.253,15.226,15.226,0,0,0,6.982,7.342,15.4,15.4,0,0,0,5.17,1.551,15.113,15.113,0,0,0,6.441-.643,16.379,16.379,0,0,0,1.62-.635.656.656,0,0,0,.235-.895.673.673,0,0,0-.895-.235Z" transform="translate(-796.006 -732.969)" fill="#225f2b"/>
    <path id="Path_57" data-name="Path 57" d="M1088.093,757.683h8.363v2.537H1091.2v3.126h4.912v2.517H1091.2v5.5h-3.105Z" transform="translate(-922.105 -733.115)" fill="#225f2b"/>
    <path id="Path_58" data-name="Path 58" d="M1148.7,756.022a1.549,1.549,0,0,1-1.665,1.543,1.554,1.554,0,1,1,.02-3.106A1.547,1.547,0,0,1,1148.7,756.022Zm-3.187,12.687v-9.926h3.085v9.926Z" transform="translate(-969.33 -730.459)" fill="#225f2b"/>
    <path id="Path_59" data-name="Path 59" d="M1177.057,781.108c0-1.238-.041-2.294-.081-3.167h2.679l.142,1.36h.061a3.633,3.633,0,0,1,3.065-1.583c2.03,0,3.552,1.34,3.552,4.263v5.887h-3.085v-5.5c0-1.279-.446-2.152-1.563-2.152a1.647,1.647,0,0,0-1.563,1.157,2.117,2.117,0,0,0-.122.771v5.724h-3.086Z" transform="translate(-995.318 -749.618)" fill="#225f2b"/>
    <path id="Path_60" data-name="Path 60" d="M1088.093,852.492h3.105v11.083h5.44v2.6h-8.546Z" transform="translate(-922.105 -811.209)" fill="#225f2b"/>
    <path id="Path_61" data-name="Path 61" d="M1149.155,850.831a1.549,1.549,0,0,1-1.664,1.543,1.554,1.554,0,1,1,.02-3.106A1.547,1.547,0,0,1,1149.155,850.831Zm-3.187,12.687v-9.926h3.085v9.926Z" transform="translate(-969.709 -808.554)" fill="#225f2b"/>
    <path id="Path_62" data-name="Path 62" d="M1177.172,857.674v2.842h2.213v2.273h-2.213v3.593c0,1.2.284,1.746,1.218,1.746a5.018,5.018,0,0,0,.913-.081l.02,2.335a6.054,6.054,0,0,1-2.01.264,3.209,3.209,0,0,1-2.314-.852,4.113,4.113,0,0,1-.852-2.943v-4.06h-1.32v-2.273h1.32v-2.152Z" transform="translate(-991.9 -815.478)" fill="#225f2b"/>
    <path id="Path_63" data-name="Path 63" d="M1089.692,947.338h2.269v.589h-1.552v1.085h1.447v.589h-1.447v1.668h-.717Z" transform="translate(-923.422 -889.334)" fill="#225f2b"/>
    <path id="Path_64" data-name="Path 64" d="M1106.215,947.2a.4.4,0,1,1-.4-.391A.38.38,0,0,1,1106.215,947.2Zm-.764,3.634v-2.841h.723v2.841Z" transform="translate(-936.369 -888.897)" fill="#225f2b"/>
    <path id="Path_65" data-name="Path 65" d="M1114,954.071c0-.327-.006-.6-.023-.846h.63l.035.426h.018a1.024,1.024,0,0,1,.9-.49c.5,0,1.009.321,1.009,1.219v1.686h-.718v-1.6c0-.408-.151-.718-.542-.718a.6.6,0,0,0-.56.42.729.729,0,0,0-.029.233v1.668H1114Z" transform="translate(-943.428 -894.131)" fill="#225f2b"/>
    <path id="Path_66" data-name="Path 66" d="M1133.712,956.066l-.047-.315h-.017a1.056,1.056,0,0,1-.84.379.843.843,0,0,1-.892-.846c0-.717.636-1.079,1.686-1.073v-.047c0-.187-.076-.5-.578-.5a1.5,1.5,0,0,0-.764.21l-.14-.467a2.048,2.048,0,0,1,1.027-.251,1.062,1.062,0,0,1,1.172,1.2v1.027a4.587,4.587,0,0,0,.041.682Zm-.093-1.388c-.508-.012-.992.1-.992.531a.376.376,0,0,0,.408.408.581.581,0,0,0,.56-.391.519.519,0,0,0,.023-.158Z" transform="translate(-958.201 -894.131)" fill="#225f2b"/>
    <path id="Path_67" data-name="Path 67" d="M1149.74,954.071c0-.327-.006-.6-.023-.846h.63l.035.426h.018a1.024,1.024,0,0,1,.9-.49c.5,0,1.009.321,1.009,1.219v1.686h-.718v-1.6c0-.408-.151-.718-.542-.718a.6.6,0,0,0-.56.42.726.726,0,0,0-.029.233v1.668h-.724Z" transform="translate(-972.863 -894.131)" fill="#225f2b"/>
    <path id="Path_68" data-name="Path 68" d="M1170.02,955.979a2.077,2.077,0,0,1-.8.146,1.364,1.364,0,0,1-1.464-1.447,1.469,1.469,0,0,1,1.581-1.517,1.791,1.791,0,0,1,.694.134l-.128.536a1.265,1.265,0,0,0-.542-.111.92.92,0,0,0,0,1.838,1.406,1.406,0,0,0,.566-.111Z" transform="translate(-987.719 -894.131)" fill="#225f2b"/>
    <path id="Path_69" data-name="Path 69" d="M1184.208,947.2a.4.4,0,1,1-.4-.391A.38.38,0,0,1,1184.208,947.2Zm-.764,3.634v-2.841h.723v2.841Z" transform="translate(-1000.611 -888.897)" fill="#225f2b"/>
    <path id="Path_70" data-name="Path 70" d="M1192.778,956.066l-.047-.315h-.017a1.055,1.055,0,0,1-.84.379.843.843,0,0,1-.892-.846c0-.717.636-1.079,1.686-1.073v-.047c0-.187-.076-.5-.578-.5a1.5,1.5,0,0,0-.764.21l-.14-.467a2.047,2.047,0,0,1,1.027-.251,1.062,1.062,0,0,1,1.172,1.2v1.027a4.589,4.589,0,0,0,.041.682Zm-.094-1.388c-.508-.012-.992.1-.992.531a.377.377,0,0,0,.408.408.581.581,0,0,0,.56-.391.519.519,0,0,0,.023-.158Z" transform="translate(-1006.854 -894.131)" fill="#225f2b"/>
    <path id="Path_71" data-name="Path 71" d="M1208.915,946.147h.724v4.142h-.724Z" transform="translate(-1021.625 -888.353)" fill="#225f2b"/>
    <path id="Path_72" data-name="Path 72" d="M1089.692,987.046h.717v3.331h1.616v.6h-2.333Z" transform="translate(-923.422 -922.042)" fill="#225f2b"/>
    <path id="Path_73" data-name="Path 73" d="M1106.414,986.908a.4.4,0,1,1-.4-.391A.38.38,0,0,1,1106.414,986.908Zm-.764,3.634V987.7h.723v2.841Z" transform="translate(-936.533 -921.606)" fill="#225f2b"/>
    <path id="Path_74" data-name="Path 74" d="M1113.8,988.635v.811h.683v.537h-.683v1.254c0,.344.093.525.367.525a1.06,1.06,0,0,0,.28-.035l.012.548a1.575,1.575,0,0,1-.519.07.83.83,0,0,1-.619-.233,1.132,1.132,0,0,1-.222-.793v-1.336h-.408v-.537h.408V988.8Z" transform="translate(-942.363 -923.351)" fill="#225f2b"/>
    <path id="Path_75" data-name="Path 75" d="M1125.39,994.556a.772.772,0,0,0,.875.735,2.132,2.132,0,0,0,.787-.129l.105.5a2.677,2.677,0,0,1-.992.175,1.344,1.344,0,0,1-1.464-1.435,1.407,1.407,0,0,1,1.388-1.528,1.235,1.235,0,0,1,1.225,1.382,1.733,1.733,0,0,1-.023.3Zm1.248-.5a.61.61,0,0,0-.589-.694.7.7,0,0,0-.659.694Z" transform="translate(-952.258 -926.839)" fill="#225f2b"/>
    <path id="Path_76" data-name="Path 76" d="M1142.693,993.85c0-.385-.006-.659-.023-.916h.624l.023.542h.023a.847.847,0,0,1,.776-.607.755.755,0,0,1,.169.017v.677a.994.994,0,0,0-.21-.023.633.633,0,0,0-.642.542,1.24,1.24,0,0,0-.023.222v1.47h-.717Z" transform="translate(-967.061 -926.839)" fill="#225f2b"/>
    <path id="Path_77" data-name="Path 77" d="M1154.955,995.775l-.047-.315h-.017a1.056,1.056,0,0,1-.84.379.843.843,0,0,1-.893-.846c0-.717.636-1.079,1.686-1.073v-.047c0-.187-.076-.5-.578-.5a1.5,1.5,0,0,0-.764.21l-.14-.467a2.045,2.045,0,0,1,1.027-.251,1.062,1.062,0,0,1,1.172,1.2v1.027a4.537,4.537,0,0,0,.041.682Zm-.094-1.388c-.507-.012-.991.1-.991.531a.377.377,0,0,0,.408.408.582.582,0,0,0,.56-.391.52.52,0,0,0,.023-.158Z" transform="translate(-975.699 -926.839)" fill="#225f2b"/>
    <path id="Path_78" data-name="Path 78" d="M1172.337,995.687a2.075,2.075,0,0,1-.805.146,1.364,1.364,0,0,1-1.464-1.446,1.469,1.469,0,0,1,1.581-1.517,1.792,1.792,0,0,1,.694.134l-.128.537a1.265,1.265,0,0,0-.543-.111.92.92,0,0,0,0,1.838,1.4,1.4,0,0,0,.566-.111Z" transform="translate(-989.627 -926.839)" fill="#225f2b"/>
    <path id="Path_79" data-name="Path 79" d="M1185.349,993.234l.513,1.523c.058.175.117.391.157.554h.018c.047-.163.1-.373.152-.56l.444-1.516h.77l-.712,1.937A4.259,4.259,0,0,1,1185.7,997a1.443,1.443,0,0,1-.752.368l-.163-.607a1.232,1.232,0,0,0,.42-.2,1.253,1.253,0,0,0,.391-.449.289.289,0,0,0,.047-.128.305.305,0,0,0-.041-.14l-1.038-2.607Z" transform="translate(-1001.566 -927.139)" fill="#225f2b"/>
    <path id="Path_80" data-name="Path 80" d="M1090.409,1026.755v3.932h-.717v-3.932Z" transform="translate(-923.422 -954.75)" fill="#225f2b"/>
    <path id="Path_81" data-name="Path 81" d="M1098.352,1033.489c0-.327-.006-.6-.023-.846h.63l.035.426h.017a1.024,1.024,0,0,1,.9-.49c.5,0,1.009.321,1.009,1.219v1.685h-.717v-1.6c0-.408-.152-.717-.543-.717a.6.6,0,0,0-.56.42.734.734,0,0,0-.029.233v1.668h-.723Z" transform="translate(-930.535 -959.547)" fill="#225f2b"/>
    <path id="Path_82" data-name="Path 82" d="M1117.962,1026.617a.4.4,0,1,1-.4-.391A.38.38,0,0,1,1117.962,1026.617Zm-.764,3.634v-2.841h.724v2.841Z" transform="translate(-946.045 -954.314)" fill="#225f2b"/>
    <path id="Path_83" data-name="Path 83" d="M1125.345,1028.344v.811h.683v.537h-.683v1.254c0,.344.093.525.367.525a1.06,1.06,0,0,0,.28-.035l.011.548a1.571,1.571,0,0,1-.519.07.831.831,0,0,1-.619-.233,1.132,1.132,0,0,1-.221-.793v-1.336h-.409v-.537h.409v-.642Z" transform="translate(-951.877 -956.059)" fill="#225f2b"/>
    <path id="Path_84" data-name="Path 84" d="M1138.048,1026.617a.4.4,0,1,1-.4-.391A.38.38,0,0,1,1138.048,1026.617Zm-.764,3.634v-2.841h.723v2.841Z" transform="translate(-962.59 -954.314)" fill="#225f2b"/>
    <path id="Path_85" data-name="Path 85" d="M1146.616,1035.484l-.047-.315h-.017a1.055,1.055,0,0,1-.84.379.843.843,0,0,1-.893-.846c0-.717.636-1.079,1.686-1.073v-.047c0-.187-.076-.5-.578-.5a1.506,1.506,0,0,0-.764.21l-.14-.466a2.045,2.045,0,0,1,1.027-.251,1.062,1.062,0,0,1,1.172,1.2v1.027a4.549,4.549,0,0,0,.041.682Zm-.093-1.388c-.507-.012-.992.1-.992.531a.376.376,0,0,0,.408.408.582.582,0,0,0,.56-.391.517.517,0,0,0,.023-.157Z" transform="translate(-968.83 -959.547)" fill="#225f2b"/>
    <path id="Path_86" data-name="Path 86" d="M1162.043,1028.344v.811h.683v.537h-.683v1.254c0,.344.093.525.367.525a1.058,1.058,0,0,0,.28-.035l.011.548a1.571,1.571,0,0,1-.519.07.83.83,0,0,1-.618-.233,1.131,1.131,0,0,1-.222-.793v-1.336h-.408v-.537h.408v-.642Z" transform="translate(-982.105 -956.059)" fill="#225f2b"/>
    <path id="Path_87" data-name="Path 87" d="M1174.745,1026.617a.4.4,0,1,1-.4-.391A.38.38,0,0,1,1174.745,1026.617Zm-.764,3.634v-2.841h.723v2.841Z" transform="translate(-992.816 -954.314)" fill="#225f2b"/>
    <path id="Path_88" data-name="Path 88" d="M1181.6,1032.942l.461,1.441c.082.251.14.478.192.712h.018c.052-.233.117-.455.192-.712l.449-1.441h.759l-1.085,2.841h-.706l-1.056-2.841Z" transform="translate(-998.486 -959.847)" fill="#225f2b"/>
    <path id="Path_89" data-name="Path 89" d="M1198.684,1034.265a.772.772,0,0,0,.875.735,2.13,2.13,0,0,0,.788-.129l.1.5a2.675,2.675,0,0,1-.991.175,1.344,1.344,0,0,1-1.464-1.435,1.407,1.407,0,0,1,1.389-1.528,1.235,1.235,0,0,1,1.225,1.382,1.779,1.779,0,0,1-.023.3Zm1.249-.5a.61.61,0,0,0-.589-.694.7.7,0,0,0-.659.694Z" transform="translate(-1012.631 -959.547)" fill="#225f2b"/>
    <path id="Path_90" data-name="Path 90" d="M992.333,947.32h3.245v.984h-2.04v1.213h1.906v.977h-1.906v2.134h-1.205Z" transform="translate(-843.227 -889.319)" fill="#225f2b"/>
    <path id="Path_91" data-name="Path 91" d="M1017.079,947.32v5.308h-1.205V947.32Z" transform="translate(-862.617 -889.319)" fill="#225f2b"/>
    <path id="Path_92" data-name="Path 92" d="M1028.6,947.207a9.827,9.827,0,0,1,1.622-.11,2.546,2.546,0,0,1,1.622.425,1.552,1.552,0,0,1,.567,1.229,1.7,1.7,0,0,1-.488,1.26,2.462,2.462,0,0,1-1.725.559,3.032,3.032,0,0,1-.41-.024v1.9H1028.6Zm1.189,2.41a1.832,1.832,0,0,0,.4.031c.638,0,1.032-.323,1.032-.866,0-.488-.339-.78-.937-.78a2.048,2.048,0,0,0-.5.047Z" transform="translate(-873.104 -889.136)" fill="#225f2b"/>
  </g>
</svg>
